<?xml version="1.0" encoding="UTF-8" standalone="no"?>
<svg
   xmlns:dc="http://purl.org/dc/elements/1.1/"
   xmlns:cc="http://creativecommons.org/ns#"
   xmlns:rdf="http://www.w3.org/1999/02/22-rdf-syntax-ns#"
   xmlns:svg="http://www.w3.org/2000/svg"
   xmlns="http://www.w3.org/2000/svg"
   xmlns:sodipodi="http://sodipodi.sourceforge.net/DTD/sodipodi-0.dtd"
   xmlns:inkscape="http://www.inkscape.org/namespaces/inkscape"
   style="enable-background:new 0 0 499.973 391.157;"
   version="1.1"
   viewBox="0 0 499.973 391.157"
   xml:space="preserve"
   id="svg2"
   inkscape:version="0.48.5 r10040"
   width="100%"
   height="100%"
   sodipodi:docname="1431356273_cloud-rejected.svg"
   inkscape:export-filename="/Users/benjamin.chevallerea/git/ohlon/ohlon/WebContent/assets/img/pages/live/server-ko.png"
   inkscape:export-xdpi="11.504332"
   inkscape:export-ydpi="11.504332"><metadata
     id="metadata13"><rdf:RDF><cc:Work
         rdf:about=""><dc:format>image/svg+xml</dc:format><dc:type
           rdf:resource="http://purl.org/dc/dcmitype/StillImage" /><dc:title></dc:title></cc:Work></rdf:RDF></metadata><defs
     id="defs11" /><sodipodi:namedview
     pagecolor="#ffffff"
     bordercolor="#666666"
     borderopacity="1"
     objecttolerance="10"
     gridtolerance="10"
     guidetolerance="10"
     inkscape:pageopacity="0"
     inkscape:pageshadow="2"
     inkscape:window-width="1192"
     inkscape:window-height="648"
     id="namedview9"
     showgrid="false"
     inkscape:zoom="0.6033383"
     inkscape:cx="-43.38125"
     inkscape:cy="195.5785"
     inkscape:window-x="345"
     inkscape:window-y="201"
     inkscape:window-maximized="0"
     inkscape:current-layer="svg2" /><path
     d="m 404.141,119.452 c -4.312,0 -8.528,0.387 -12.668,0.945 C 387.804,53.29 332.262,0 264.256,0 208.74,0 166.46,40.418 148.992,89.954 139.681,87.508 124.975,81.286 114.881,81.286 51.428,81.286 0,132.711 0,196.191 c 0,63.479 51.428,114.903 114.881,114.903 6.812,0 15.296,0 24.935,0 l -7.23,7.208 c -7.096,7.123 -7.096,18.622 -0.016,25.701 l 41.817,41.834 c 3.406,3.411 8.045,5.32 12.85,5.32 4.827,0 9.471,-1.909 12.878,-5.32 l 49.852,-49.857 49.868,49.857 c 3.412,3.411 8.056,5.32 12.861,5.32 4.817,0 9.44,-1.909 12.85,-5.32 l 41.834,-41.834 c 7.101,-7.08 7.101,-18.578 0,-25.701 l -7.219,-7.208 c 19.812,0 35.441,0 43.979,0 52.935,0 95.832,-42.885 95.832,-95.832 0.001,-52.903 -42.896,-95.81 -95.831,-95.81 z m -49.622,211.701 -41.823,41.834 -61.887,-61.893 -0.841,-0.858 -0.832,0.858 -61.898,61.893 -41.796,-41.834 20.085,-20.059 42.627,-42.649 -62.712,-62.73 41.796,-41.812 62.73,62.708 62.708,-62.708 41.834,41.812 -62.708,62.708 42.638,42.671 20.079,20.059 z"
     style="fill:#e83124;fill-opacity:1"
     id="path6"
     inkscape:connector-curvature="0" /><g
     id="Layer_1" /></svg>